<svg width="15" height="16" viewBox="0 0 15 16" fill="none" xmlns="http://www.w3.org/2000/svg">
<path d="M1.73578 11.7L1.19966 14.299L1.07569 14.9H1.68935H13.3111H13.9247L13.8008 14.299L13.2646 11.7H13.4781L14.4481 14.6383L14.4481 14.6384C14.5452 14.9324 14.4925 15.1403 14.4045 15.2636C14.3171 15.3861 14.1418 15.5 13.8396 15.5H1.16081C0.858643 15.5 0.683247 15.3861 0.595769 15.2635C0.507649 15.1401 0.454916 14.9322 0.551578 14.6383C0.551616 14.6382 0.551654 14.6381 0.551692 14.638L1.52221 11.7H1.73578ZM7.50021 11.2473C7.43035 11.1657 7.35218 11.0728 7.26727 10.9696C6.90447 10.5285 6.42098 9.90181 5.93825 9.15983C4.9603 7.65666 4.03808 5.75925 4.03808 4C4.03808 3.07022 4.40399 2.17946 5.05379 1.52344C5.70344 0.867582 6.58354 0.5 7.50021 0.5C8.41688 0.5 9.29698 0.867582 9.94663 1.52344C10.5964 2.17946 10.9623 3.07022 10.9623 4C10.9623 5.75925 10.0401 7.65666 9.06217 9.15983C8.57944 9.90181 8.09595 10.5285 7.73315 10.9696C7.64824 11.0728 7.57007 11.1657 7.50021 11.2473ZM7.50021 1.3888C6.03742 1.3888 4.86066 2.58343 4.86066 4.048C4.86066 4.75195 5.13761 5.42801 5.63209 5.92722C6.12673 6.42658 6.79862 6.708 7.50021 6.708C8.2017 6.708 8.87349 6.42663 9.36805 5.92734C9.86245 5.42821 10.1394 4.75224 10.1394 4.0484C10.1394 3.34456 9.86246 2.66859 9.36805 2.16946C8.87349 1.67017 8.2017 1.3888 7.50021 1.3888Z" fill="white" stroke="white"/>
</svg>
