<svg width="16" height="16" viewBox="0 0 16 16" fill="none" xmlns="http://www.w3.org/2000/svg">
<path d="M3.71429 3.29782C4.28571 0.062301 6.66667 -0.133176 8 0.0466437C8.57143 0.0466437 8 0.587137 8 0.587137C9.42857 0.587137 11.0476 0.587137 12 3.28972C12.8279 5.63894 11.4286 7.36436 13.1429 9.52641C12.5714 10.3163 11.4286 10.6053 10 10.6053V11.6843C12.2857 12.312 16 13.5595 16 16L0 15.9999C0 13.4105 4.19048 12.0439 6.28571 11.6843V10.6053C5.14286 10.6053 3.42857 10.0659 2.85714 9.52641C4.28571 8.16249 3.14286 6.53335 3.71429 3.29782Z" fill="#3CACFE"/>
</svg>
