<svg width="698" height="610" viewBox="0 0 698 610" fill="none" xmlns="http://www.w3.org/2000/svg">
<circle cx="409" cy="289" r="289" fill="white" fill-opacity="0.1"/>
<circle cx="408.51" cy="288.51" r="201.51" fill="white" fill-opacity="0.1"/>
<circle opacity="0.3" cx="331.5" cy="373.5" r="7" stroke="white" stroke-width="5"/>
<circle cx="145.5" cy="598.5" r="11.5" fill="white"/>
<circle opacity="0.4" cx="555.5" cy="535.5" r="11.5" fill="white"/>
<circle cx="9.5" cy="548.5" r="7" stroke="white" stroke-width="5"/>
<circle cx="564.5" cy="465.5" r="4" stroke="white" stroke-width="3"/>
<circle cx="465.5" cy="529.5" r="4" stroke="white" stroke-width="3"/>
<circle cx="201.5" cy="380.5" r="4" stroke="white" stroke-width="3"/>
<circle opacity="0.3" cx="109.5" cy="484.5" r="4" stroke="white" stroke-width="3"/>
<circle opacity="0.4" cx="312.5" cy="591.5" r="4" stroke="white" stroke-width="3"/>
<circle opacity="0.7" cx="479.5" cy="369.5" r="4" stroke="white" stroke-width="3"/>
<path d="M315.992 413.527L185.463 422.228C183.032 422.396 175.401 426.835 174.356 436.462L165.627 517.109C165.174 521.319 165.52 531.145 173.751 532.679L300.771 556.274C301.574 556.426 302.39 556.5 303.196 556.5C306.268 556.5 317.334 554.028 318.483 543.316L330.372 433.503C331.488 423.24 325.251 412.898 315.992 413.527ZM185.81 427.148L316.325 418.444C317.967 418.319 319.607 418.724 321.002 419.599L268.502 467.158C268.739 464.705 268.627 462.231 268.169 459.81C263.508 435.263 239.594 446.574 236.297 458.231C234.96 445.884 216.043 437.397 207.873 459.144C207.498 460.159 207.189 461.197 206.946 462.252L183.362 428.339C184.184 427.624 185.037 427.2 185.81 427.148ZM170.599 517.629L179.328 436.982C179.487 435.525 179.853 434.081 180.389 432.761L206.242 469.374C206.391 473.656 207.482 477.866 209.143 481.884L170.657 521.429C170.481 520.17 170.461 518.893 170.599 517.629ZM301.697 551.429L174.678 527.831C173.979 527.702 173.286 527.229 172.667 526.486L211.409 486.675C218.133 499.261 229.136 509.123 230.346 511.532C232.103 509.838 248.622 500.59 259.383 487.197L265.648 495.554L306.972 550.648C305.348 551.483 303.494 551.758 301.697 551.429ZM325.402 430.517L313.514 540.327C313.225 543 312.257 545.475 310.775 547.428L262.452 483.001C263.733 481.079 264.858 479.058 265.815 476.956L324.275 423.331C325.281 425.388 325.686 427.891 325.402 430.517Z" fill="#F1F5F9"/>
<path d="M405.028 412.935L452.684 396.236C453.572 395.927 456.954 396.346 458.785 399.605L474.109 426.91C474.909 428.336 476.275 431.877 473.586 433.669L432.072 461.302C431.81 461.477 431.531 461.627 431.245 461.749C430.155 462.215 425.852 463.015 423.82 459.387L402.952 422.207C401 418.733 401.646 414.116 405.028 412.935V412.935ZM453.307 398.035L405.655 414.731C405.053 414.936 404.533 415.328 404.17 415.851L430.017 424.774C429.561 423.939 429.226 423.044 429.021 422.115C426.955 412.695 437.159 413.085 440.096 416.723C438.699 412.137 444.128 406.257 450.325 412.738C450.612 413.042 450.879 413.363 451.125 413.701L454.356 398.086C453.956 397.957 453.589 397.936 453.307 398.035V398.035ZM472.423 427.849L457.098 400.543C456.821 400.05 456.472 399.593 456.082 399.206L452.455 416.122C453.051 417.665 453.302 419.325 453.321 421.003L472.979 429.206C472.85 428.733 472.664 428.276 472.423 427.849V427.849ZM431.009 459.722L472.522 432.089C472.75 431.937 472.925 431.664 473.032 431.307L453.243 423.047C452.764 428.535 450.354 433.703 450.289 434.742C449.409 434.407 442.142 433.628 436.292 430.505L435.335 434.422L429.018 460.244C429.721 460.295 430.421 460.111 431.009 459.722V459.722ZM404.263 420.393L425.131 457.573C425.639 458.478 426.357 459.209 427.18 459.678L434.567 429.481C433.82 428.993 433.115 428.446 432.456 427.845L403.574 417.671C403.529 418.554 403.764 419.504 404.263 420.393" fill="#F1F5F9"/>
<path d="M415.964 515.183C416.104 512.46 414.063 509.042 409.996 508.128C408.055 507.687 406.022 507.917 404.229 508.78C404.006 506.802 403.119 504.959 401.712 503.551C398.758 500.605 394.794 500.685 392.564 502.252C389.438 504.445 388.18 508.159 388.826 513.291C389.335 517.309 390.719 521.861 393.194 527.627C393.271 527.81 393.408 527.961 393.582 528.057C393.756 528.153 393.957 528.189 394.153 528.158C400.34 527.188 404.925 525.965 408.615 524.226C413.296 522.037 415.771 518.996 415.964 515.183V515.183Z" fill="white"/>
<path d="M554.075 382.247C553.645 381.116 552.203 380.093 550.388 380.45C549.52 380.619 548.736 381.076 548.162 381.748C547.717 380.985 547.027 380.395 546.203 380.075C544.476 379.408 542.88 380.15 542.255 381.186C541.378 382.637 541.532 384.371 542.714 386.339C543.64 387.88 545.018 389.481 547.056 391.38C547.12 391.44 547.203 391.477 547.291 391.485C547.379 391.493 547.466 391.471 547.541 391.423C549.88 389.921 551.523 388.603 552.71 387.236C554.22 385.509 554.68 383.83 554.075 382.247V382.247Z" fill="white"/>
<path opacity="0.5" d="M48.5759 417.178C47.5363 416.559 45.7712 416.651 44.5695 418.058C43.994 418.729 43.6627 419.574 43.6299 420.457C42.8074 420.135 41.8998 420.101 41.0555 420.361C39.2868 420.91 38.4964 422.483 38.6492 423.683C38.8619 425.365 40.0589 426.628 42.2074 427.439C43.8899 428.072 45.9638 428.472 48.7402 428.696C48.8281 428.703 48.9158 428.681 48.9896 428.633C49.0633 428.585 49.1188 428.513 49.1472 428.43C50.0491 425.8 50.5197 423.746 50.602 421.938C50.7135 419.647 50.0327 418.045 48.5759 417.178V417.178Z" fill="white"/>
</svg>
