<svg width="24" height="24" viewBox="0 0 24 24" fill="none" xmlns="http://www.w3.org/2000/svg">
<path d="M14.2012 12.0125L0.75125 10.6575L0.75 2.09252C0.750164 1.8638 0.80876 1.63891 0.92023 1.43919C1.0317 1.23947 1.19235 1.07155 1.38693 0.951338C1.58152 0.831132 1.80359 0.762632 2.03208 0.752337C2.26056 0.742043 2.48789 0.790295 2.6925 0.892516L22.5075 10.8C22.7301 10.9117 22.9172 11.083 23.048 11.295C23.1788 11.5069 23.2481 11.751 23.2481 12C23.2481 12.249 23.1788 12.4932 23.048 12.7051C22.9172 12.917 22.7301 13.0884 22.5075 13.2L2.695 23.1075C2.49039 23.2097 2.26306 23.258 2.03457 23.2477C1.80609 23.2374 1.58402 23.1689 1.38943 23.0487C1.19485 22.9285 1.0342 22.7606 0.922729 22.5608C0.81126 22.3611 0.752664 22.1362 0.7525 21.9075V13.3425L14.2025 12.0125H14.2012Z" fill="url(#paint0_linear)"/>
<defs>
<linearGradient id="paint0_linear" x1="0.75" y1="23.249" x2="23.2481" y2="23.249" gradientUnits="userSpaceOnUse">
<stop stop-color="#60BBFE"/>
<stop offset="1" stop-color="#3CACFE"/>
</linearGradient>
</defs>
</svg>
