<svg width="80" height="80" viewBox="0 0 80 80" fill="none" xmlns="http://www.w3.org/2000/svg">
<path d="M10.7553 52.7173L10.0585 54.3333H11.4515L10.7553 52.7173ZM12.5083 55.4416C12.5253 55.4815 12.5363 55.5157 12.5363 55.5559C12.5363 55.6873 12.4515 55.8126 12.28 55.8126C12.1481 55.8126 12.0742 55.7446 12.0344 55.6527L11.652 54.8184H9.85788L9.47471 55.6527C9.43482 55.7446 9.36036 55.8126 9.22972 55.8126C9.05859 55.8126 8.97302 55.6873 8.97302 55.5559C8.97302 55.5157 8.98428 55.4815 9.00115 55.4416L10.509 52.0775C10.5545 51.9689 10.6347 51.9174 10.7553 51.9174C10.8746 51.9174 10.954 51.9689 11.0007 52.0775L12.5083 55.4416" fill="white"/>
<path d="M16.5405 52.523C16.5857 52.5799 16.6142 52.6429 16.6142 52.7173C16.6142 52.86 16.5174 52.9573 16.3692 52.9573C16.2599 52.9573 16.186 52.8942 16.1292 52.8256C15.8838 52.5515 15.5528 52.3916 15.1358 52.3916C14.2105 52.3916 13.7248 53.0599 13.7248 53.8651C13.7248 54.6701 14.2105 55.3379 15.1358 55.3379C15.5528 55.3379 15.8838 55.179 16.1292 54.9043C16.186 54.8364 16.2599 54.7733 16.3692 54.7733C16.5174 54.7733 16.6142 54.8701 16.6142 55.0133C16.6142 55.0873 16.5857 55.1501 16.5405 55.2074C16.2553 55.5677 15.729 55.8354 15.1012 55.8354C13.9079 55.8354 13.1708 54.9336 13.1708 53.8651C13.1708 52.7974 13.9079 51.8945 15.1012 51.8945C15.729 51.8945 16.2553 52.1634 16.5405 52.523Z" fill="white"/>
<path d="M20.2989 52.4773H19.2308V55.5328C19.2308 55.6873 19.1215 55.813 18.9619 55.813C18.7967 55.813 18.682 55.6873 18.682 55.5328V52.4773H17.6026C17.4599 52.4773 17.3395 52.3627 17.3395 52.2264C17.3395 52.0775 17.4544 51.9629 17.6026 51.9629H20.2989C20.4474 51.9629 20.5611 52.0775 20.5611 52.2264C20.5611 52.3627 20.4417 52.4773 20.2989 52.4773Z" fill="white"/>
<path d="M21.8122 55.813C21.6462 55.813 21.5325 55.6873 21.5325 55.5328V52.1976C21.5325 52.0435 21.6408 51.9174 21.8122 51.9174C21.9716 51.9174 22.0802 52.0319 22.0802 52.1976V55.5328C22.0802 55.6873 21.9716 55.813 21.8122 55.813" fill="white"/>
<path d="M25.9696 52.0775C26.0211 51.9522 26.107 51.9174 26.2098 51.9174C26.3356 51.9174 26.473 52.0031 26.473 52.1751C26.473 52.2085 26.4613 52.2431 26.4438 52.289L24.9996 55.6581C24.9583 55.7551 24.8844 55.8126 24.7651 55.8126C24.6448 55.8126 24.5715 55.7551 24.5309 55.6581L23.0859 52.289C23.0679 52.2431 23.057 52.2085 23.057 52.1751C23.057 52.0031 23.194 51.9174 23.3201 51.9174C23.4229 51.9174 23.5086 51.9522 23.5596 52.0775L24.7651 54.9849L25.9696 52.0775Z" fill="white"/>
<path d="M29.8939 55.7671H27.7005C27.5344 55.7671 27.4205 55.647 27.4205 55.4929V52.2378C27.4205 52.0833 27.5455 51.9629 27.7005 51.9629H29.8078C29.9506 51.9629 30.07 52.0719 30.07 52.2147C30.07 52.3574 29.9506 52.4656 29.8078 52.4656H27.9689V53.5683H29.0086C29.1455 53.5683 29.2595 53.6769 29.2595 53.82C29.2595 53.9681 29.1455 54.0709 29.0086 54.0709H27.9689V55.2642H29.8939C30.0367 55.2642 30.1559 55.3615 30.1559 55.5158C30.1559 55.6585 30.0367 55.7671 29.8939 55.7671" fill="white"/>
<path d="M33.1036 55.4871V52.1976C33.1036 52.0435 33.2116 51.9174 33.3838 51.9174C33.5428 51.9174 33.6522 52.032 33.6522 52.1976V55.2529H35.4734C35.6106 55.2529 35.7309 55.3619 35.7309 55.5047C35.7309 55.6528 35.6106 55.7671 35.4734 55.7671H33.3838C33.2173 55.7671 33.1036 55.6414 33.1036 55.4871Z" fill="white"/>
<path d="M38.135 52.3916C37.2496 52.3916 36.7534 53.0829 36.7534 53.8651C36.7534 54.6477 37.2496 55.3384 38.135 55.3384C39.0206 55.3384 39.5168 54.6477 39.5168 53.8651C39.5168 53.0829 39.0206 52.3916 38.135 52.3916ZM38.135 55.8359C36.9761 55.8359 36.2048 54.9394 36.2048 53.8651C36.2048 52.791 36.9761 51.895 38.135 51.895C39.2948 51.895 40.0658 52.791 40.0658 53.8651C40.0658 54.9394 39.2948 55.8359 38.135 55.8359Z" fill="white"/>
<path d="M44.0922 55.813C43.995 55.813 43.9384 55.7792 43.886 55.7158L41.6994 52.9288V55.5559C41.6994 55.6987 41.5964 55.813 41.4367 55.813C41.2764 55.813 41.1792 55.6931 41.1792 55.5559V52.1805C41.1792 52.0148 41.282 51.9174 41.448 51.9174C41.5342 51.9174 41.6079 51.9629 41.6534 52.0259L43.836 54.8022V52.1805C43.836 52.0206 43.9441 51.9174 44.0982 51.9174C44.2521 51.9174 44.3544 52.0206 44.3544 52.1805V55.5559C44.3544 55.6931 44.2643 55.813 44.0922 55.813" fill="white"/>
<path d="M48.9076 55.2307C48.5695 55.6014 48.0216 55.8354 47.3766 55.8354C46.2177 55.8354 45.4409 54.9903 45.4409 53.8651C45.4409 52.7113 46.2568 51.8945 47.3647 51.8945C47.8618 51.8945 48.33 52.0377 48.6557 52.3803C48.7074 52.4318 48.7416 52.4888 48.7416 52.5632C48.7416 52.6998 48.6448 52.8141 48.4894 52.8141C48.4272 52.8141 48.3702 52.791 48.308 52.7459C48.0041 52.5173 47.7357 52.4034 47.3647 52.4034C46.537 52.4034 45.9948 53.0545 45.9948 53.8651C45.9948 54.6765 46.4735 55.3619 47.3766 55.3619C47.8045 55.3619 48.1877 55.2358 48.4332 55.0191V54.3167H47.5254C47.3875 54.3167 47.2736 54.2081 47.2736 54.0649C47.2736 53.9226 47.3875 53.82 47.5254 53.82H48.6956C48.8497 53.82 48.9702 53.9226 48.9702 54.0991V55.048C48.9702 55.1272 48.9578 55.1789 48.9076 55.2307" fill="white"/>
<path d="M52.0662 55.4871V52.1976C52.0662 52.0435 52.1743 51.9174 52.3457 51.9174C52.5055 51.9174 52.6137 52.032 52.6137 52.1976V55.2529H54.4353C54.5725 55.2529 54.6924 55.3619 54.6924 55.5047C54.6924 55.6528 54.5725 55.7671 54.4353 55.7671H52.3457C52.1796 55.7671 52.0662 55.6414 52.0662 55.4871" fill="white"/>
<path d="M55.9891 55.813C55.8239 55.813 55.7091 55.6873 55.7091 55.5328V52.1976C55.7091 52.0435 55.8183 51.9174 55.9891 51.9174C56.1485 51.9174 56.2575 52.0319 56.2575 52.1976V55.5328C56.2575 55.6873 56.1485 55.813 55.9891 55.813Z" fill="white"/>
<path d="M60.1475 52.0775C60.1992 51.9522 60.2845 51.9174 60.3871 51.9174C60.5123 51.9174 60.6497 52.0031 60.6497 52.1751C60.6497 52.2085 60.6379 52.2431 60.6217 52.289L59.1762 55.6581C59.1363 55.7551 59.0627 55.8126 58.9422 55.8126C58.8219 55.8126 58.7479 55.7551 58.708 55.6581L57.2625 52.289C57.2458 52.2431 57.2345 52.2085 57.2345 52.1751C57.2345 52.0031 57.3715 51.9174 57.4967 51.9174C57.6001 51.9174 57.6854 51.9522 57.7376 52.0775L58.9422 54.9849L60.1475 52.0775" fill="white"/>
<path d="M61.9062 55.813C61.7412 55.813 61.6265 55.6873 61.6265 55.5328V52.1976C61.6265 52.0435 61.7346 51.9174 61.9062 51.9174C62.0669 51.9174 62.1742 52.0319 62.1742 52.1976V55.5328C62.1742 55.6873 62.0669 55.813 61.9062 55.813Z" fill="white"/>
<path d="M66.4298 55.813C66.3332 55.813 66.2753 55.7792 66.2245 55.7158L64.0368 52.9288V55.5559C64.0368 55.6987 63.9346 55.813 63.7739 55.813C63.6145 55.813 63.5168 55.6931 63.5168 55.5559V52.1805C63.5168 52.0148 63.619 51.9174 63.7857 51.9174C63.8712 51.9174 63.946 51.9629 63.9906 52.0259L66.173 54.8022V52.1805C66.173 52.0206 66.2811 51.9174 66.436 51.9174C66.5893 51.9174 66.6927 52.0206 66.6927 52.1805V55.5559C66.6927 55.6931 66.6012 55.813 66.4298 55.813" fill="white"/>
<path d="M71.2448 55.2307C70.9067 55.6014 70.3594 55.8354 69.7134 55.8354C68.5547 55.8354 67.7775 54.9903 67.7775 53.8651C67.7775 52.7113 68.594 51.8945 69.7025 51.8945C70.1992 51.8945 70.6672 52.0377 70.9931 52.3803C71.0439 52.4318 71.0788 52.4888 71.0788 52.5632C71.0788 52.6998 70.9817 52.8141 70.8274 52.8141C70.7653 52.8141 70.7071 52.791 70.6445 52.7459C70.3428 52.5173 70.0739 52.4034 69.7025 52.4034C68.874 52.4034 68.3322 53.0545 68.3322 53.8651C68.3322 54.6765 68.8114 55.3619 69.7134 55.3619C70.1421 55.3619 70.5244 55.2358 70.7697 55.0191V54.3167H69.8619C69.7258 54.3167 69.6115 54.2081 69.6115 54.0649C69.6115 53.9226 69.7258 53.82 69.8619 53.82H71.0328C71.188 53.82 71.307 53.9226 71.307 54.0991V55.048C71.307 55.1272 71.2961 55.1789 71.2448 55.2307Z" fill="white"/>
<path d="M14.1082 44.899C15.2654 44.899 16.052 44.529 16.052 43.5218C16.052 42.5151 15.2654 42.145 14.1082 42.145H10.0695V44.899H14.1082ZM16.0061 49.0307L13.495 46.091H10.081V49.0307H8.69214V40.9294H14.2013C16.087 40.9294 17.4757 41.8323 17.4757 43.5103C17.4757 44.9105 16.5038 45.7666 15.092 46.0218L17.719 49.0307H16.0061" fill="white"/>
<path d="M30.6477 40.9298V49.0303H29.259V45.5471H23.1373V49.0303H21.7487V40.9298H23.1373V44.2974H29.259V40.9298H30.6477Z" fill="white"/>
<path d="M41.4014 45.8944L39.4227 42.1445L37.4442 45.8944H41.4014ZM42.0151 47.0747H36.8193L35.7893 49.0303H34.285L38.6707 40.9294H40.1982L44.5727 49.0303H43.0565L42.0151 47.0747" fill="white"/>
<path d="M57.1195 40.9298V49.0303H55.8929L49.5632 42.6425V49.0303H48.2205V40.9298H49.7016L55.7655 47.0747V40.9298H57.1195Z" fill="white"/>
<path d="M67.8732 45.8944L65.8939 42.1445L63.9154 45.8944H67.8732ZM68.4863 47.0747H63.2905L62.2605 49.0303H60.7562L65.1416 40.9294H66.6694L71.0439 49.0303H69.5281L68.4863 47.0747Z" fill="white"/>
<path d="M41.1664 18.1481C41.4498 18.2035 41.7315 18.2915 42.017 18.3076C42.6961 18.3458 43.1545 18.6751 43.4073 19.3021C43.6402 19.8813 43.4436 20.3835 42.8427 20.5658C42.401 20.6997 42.2211 20.9526 42.211 21.3847C42.2074 21.5372 42.1973 21.69 42.1847 21.8422C42.1593 22.161 41.9749 22.2848 41.6736 22.2574C41.1239 22.2078 40.5708 22.1766 40.027 22.091C39.9071 22.0719 39.7148 21.8403 39.7312 21.7347C39.8317 21.0955 39.7148 20.414 40.1392 19.8291C40.3024 19.6043 40.3467 19.2748 40.3918 18.9846C40.4343 18.7115 40.4067 18.4274 40.4097 18.1481H41.1664" fill="white"/>
<path d="M30.8749 28.2391C31.074 28.2568 31.2831 28.2423 31.4709 28.2985C32.0594 28.4741 32.4413 28.2515 32.7038 27.7236C32.767 27.5965 32.8818 27.4954 32.9784 27.3755C33.2186 27.9811 33.444 28.5492 33.6639 29.1035C33.0106 29.5843 32.3148 30.0968 31.5382 30.6685C31.4692 30.4347 31.4121 30.2312 31.3487 30.0299C31.1924 29.5345 31.033 29.0398 30.8749 28.5449V28.2391" fill="white"/>
<path d="M30.8749 26.4044C31.0292 25.9872 31.1841 25.5699 31.3132 25.2205C31.8628 25.1102 32.3997 25.0343 32.9172 24.8884C33.3479 24.7672 33.7043 24.7736 33.987 25.1619C33.8142 25.6453 33.6413 26.1287 33.4389 26.6946C33.2652 26.4456 33.1203 26.2377 32.9393 25.9778C32.2823 26.3341 31.6985 26.9042 30.8749 26.7102V26.4044" fill="white"/>
<path d="M38.7998 22.3515C38.4414 22.4739 38.1619 22.5714 37.8811 22.6645C37.6447 22.743 37.4 22.7994 37.1712 22.8953C36.5967 23.1358 36.6422 23.1193 36.3225 22.5226C36.1558 22.2119 35.8351 21.9615 35.537 21.7512C34.7903 21.2242 34.7819 19.8828 35.5511 19.39C35.7836 19.241 36.021 19.0942 36.2717 18.9818C36.8997 18.7008 37.2147 18.8482 37.3996 19.5039C37.4607 19.7212 37.4975 19.9495 37.5141 20.1749C37.5733 20.9759 37.8362 21.6548 38.5634 22.0788C38.6235 22.114 38.6611 22.1888 38.7998 22.3515" fill="white"/>
<path d="M39.1889 32.5511C38.8583 32.9452 38.604 33.2895 38.3069 33.5908C38.0468 33.8545 37.897 34.1144 38.125 34.4559C38.4597 34.9568 38.0616 35.3184 37.8883 35.7118C37.8468 35.8061 37.6355 35.8484 37.4955 35.8697C36.8253 35.9719 36.2772 35.6956 35.7416 35.2607C35.8239 35.054 35.9053 34.8493 35.9816 34.6587C35.4332 33.6806 35.4369 33.6959 36.4917 33.423C36.7097 33.3664 36.9467 33.1888 37.0719 32.9982C37.3978 32.5028 37.7496 32.2086 38.377 32.459C38.5933 32.5454 38.8542 32.5174 39.1889 32.5511" fill="white"/>
<path d="M32.3994 31.9585C32.7294 31.8863 33.0151 31.8107 33.3057 31.7636C33.6162 31.7136 33.8099 31.592 33.8071 31.2317C33.8049 30.909 33.7797 30.5177 34.1529 30.3912C34.489 30.2771 34.6741 30.6214 34.9034 30.8039C35.2942 31.115 35.6851 31.426 36.1333 31.782C35.8836 32.156 35.6026 32.5127 35.1581 32.637C34.613 32.7896 34.1349 33.0288 33.7297 33.4265C33.6633 33.4916 33.5583 33.5166 33.4823 33.5547C32.8277 33.0518 32.5114 32.6063 32.3994 31.9585" fill="white"/>
<path d="M33.1986 21.602C33.3595 22.3994 33.3595 22.3994 34.5223 22.4677C34.6497 22.6511 34.7702 22.8695 34.9343 23.0469C35.085 23.2099 35.2822 23.3287 35.5107 23.5074C35.2615 23.8615 35.0978 24.1406 34.8892 24.3795C34.6353 24.6702 34.2748 24.6095 34.093 24.2703C34.0459 24.1825 34.034 24.0763 33.9919 23.9848C33.7647 23.4922 33.5818 23.4251 33.1309 23.7576C32.8808 23.9421 32.6708 24.0419 32.3848 23.8801C32.0638 23.6987 32.0536 23.4159 32.091 23.0932C32.1707 22.4017 32.5468 21.9407 33.1986 21.602" fill="white"/>
<path d="M34.9628 25.9129C35.5015 25.3656 35.5139 25.3651 35.9682 25.8406C36.3706 26.2621 36.6074 26.2362 36.8867 25.7385C36.9607 25.6071 37.0254 25.4707 37.103 25.3421C37.1267 25.3025 37.1795 25.2807 37.2738 25.2094C37.5432 25.3513 37.8364 25.5062 38.151 25.6727C37.0504 26.9038 35.7097 26.9925 34.9628 25.9129" fill="white"/>
<path d="M34.7921 28.7088C34.7921 28.0384 35.3356 27.4949 36.0057 27.4949C36.6765 27.4949 37.22 28.0384 37.22 28.7088C37.22 29.3792 36.6765 29.9226 36.0057 29.9226C35.3356 29.9226 34.7921 29.3792 34.7921 28.7088Z" fill="white"/>
<path d="M43.4151 29.4691C42.6868 29.4691 42.0966 28.8791 42.0966 28.1505C42.0966 27.4224 42.6868 26.8322 43.4151 26.8322C44.1435 26.8322 44.7337 27.4224 44.7337 28.1505C44.7337 28.8791 44.1435 29.4691 43.4151 29.4691V29.4691ZM41.9528 25.4876C41.9064 25.3416 41.9271 25.1292 42.0036 24.9978C42.1443 24.7559 42.4005 24.6964 42.6589 24.7973C42.8847 24.8854 43.0954 25.0114 43.3626 25.1456C43.1752 25.6021 42.9527 25.8395 42.5475 25.8462C42.2729 25.8504 42.0374 25.7536 41.9528 25.4876V25.4876ZM48.206 26.8869C47.8057 26.7431 47.4014 26.5875 47.0393 26.3678C46.6412 26.1259 46.6369 25.7923 46.9855 25.4991C47.3567 25.1873 47.7649 25.0452 48.2444 25.2724C48.4786 25.3829 48.7327 25.4493 49.0962 25.5771C49.0016 25.2563 48.9623 25.0612 48.8872 24.8815C48.6517 24.3197 48.3968 23.7666 48.1621 23.2042C48.0728 22.9902 48.0098 22.7045 47.7399 22.7537C47.5507 22.7881 47.2689 22.9817 47.2434 23.1398C47.1203 23.8983 46.66 23.9679 46.051 23.8487C45.9059 23.8203 45.7452 23.8711 45.5994 23.8433C45.472 23.8196 45.356 23.7367 45.1523 23.6412C45.346 23.5033 45.4532 23.3661 45.5748 23.352C45.9157 23.3127 46.0764 23.1024 46.1091 22.8056C46.1745 22.2051 46.3732 21.6892 46.9447 21.3582C46.6325 21.0257 46.3903 20.7301 46.1108 20.4775C45.6135 20.0281 45.3051 20.0368 44.7775 20.4388C44.5796 20.5901 44.3715 20.7386 44.1464 20.8406C43.6289 21.075 43.5096 21.2949 43.6757 21.8337C43.7304 22.0115 43.8034 22.1833 43.8618 22.3408C43.7821 22.3949 43.7624 22.4184 43.74 22.4218C43.6402 22.4374 43.5404 22.4523 43.4397 22.4581C42.0645 22.537 40.8712 23.0302 40.0346 24.162C39.4811 24.9108 38.972 25.7077 38.5581 26.5413C38.3072 27.0472 38.2978 27.6654 38.3843 28.3021C38.6346 28.2179 38.8393 28.1001 39.0453 28.0971C39.1802 28.0954 39.4396 28.3337 39.4349 28.3414C39.1674 28.8036 39.686 29.4323 39.0956 29.7834C39.7085 30.4532 39.7085 30.4532 39.3761 30.9625C39.0094 31.5243 39.0569 31.7446 39.624 32.1256C39.8251 32.2603 40.0237 32.3992 40.2626 32.5629C40.0856 32.7535 39.9747 32.8877 39.8493 33.0063C39.3268 33.5021 39.1733 33.9443 39.4911 34.5548C39.7623 35.0756 39.7147 35.4588 39.2543 35.808C39.4012 36.0614 39.527 36.2785 39.6529 36.4952H41.0153C41.201 36.3709 41.4177 36.2747 41.564 36.1133C41.7055 35.9582 41.8709 35.7287 41.857 35.5447C41.8241 35.0953 41.719 34.6456 41.5959 34.2099C41.4463 33.6831 41.426 33.6897 41.8387 33.4211C41.9615 33.3412 42.0816 33.2576 42.1872 33.1865C42.1872 32.8986 42.1425 32.6377 42.2043 32.4054C42.2394 32.2727 42.4411 32.1103 42.5774 32.1009C42.7091 32.0912 42.8939 32.2321 42.9833 32.3584C43.1739 32.6293 43.1371 32.9287 42.9942 33.2258C42.848 33.5292 42.8589 33.8654 43.1284 34.0605C43.5679 34.3785 43.7699 34.8089 43.8509 35.409C44.8664 35.1433 45.5968 34.5779 46.2869 33.8295C46.1161 33.6799 46.0063 33.5254 45.8591 33.4641C45.159 33.1743 44.6527 32.7505 44.6181 31.9151C44.6123 31.7756 44.4749 31.6459 44.4386 31.5014C44.411 31.392 44.404 31.1986 44.4638 31.1586C44.7292 30.9823 45.0156 30.7458 45.3069 30.7272C45.5998 30.7086 45.7054 31.0573 45.7439 31.352C45.7764 31.6042 45.7969 31.8624 45.867 32.1047C45.9892 32.5276 46.2756 32.8003 46.7143 32.8777C47.1079 32.9465 47.3024 32.6911 47.4815 32.3911C47.729 31.9778 48.0085 31.5839 48.2532 31.1689C48.3333 31.033 48.3479 30.8575 48.3925 30.6987C48.2632 30.6472 48.1818 30.5806 48.1258 30.5977C47.1751 30.8889 46.9004 30.2765 46.7152 29.5358C46.6842 29.4135 46.6237 29.2964 46.6066 29.1729C46.5382 28.6797 46.66 28.276 47.2154 28.0084C47.359 28.2236 47.5001 28.4217 47.627 28.629C47.7198 28.7803 47.7807 28.9513 47.8775 29.099C48.0448 29.3528 48.3149 29.3691 48.5541 29.283C48.7201 29.2231 48.9482 29.0609 48.9697 28.9173C49.0576 28.3283 49.077 27.7285 49.1247 27.0912C48.7874 27.0192 48.4848 26.9869 48.206 26.8869" fill="white"/>
<path d="M39.9998 0.855463C18.4153 0.855463 0.854815 18.4157 0.854815 40.0002C0.854815 61.5847 18.4153 79.1452 39.9998 79.1452C61.5843 79.1452 79.1443 61.5847 79.1443 40.0002C79.1443 18.4157 61.5843 0.855463 39.9998 0.855463V0.855463ZM39.9998 80C17.944 80 0 62.056 0 40.0002C0 17.9443 17.944 0.000647918 39.9998 0.000647918C62.0555 0.000647918 79.9991 17.9443 79.9991 40.0002C79.9991 62.056 62.0555 80 39.9998 80Z" fill="white"/>
</svg>
