<svg width="20" height="20" viewBox="0 0 20 20" fill="none" xmlns="http://www.w3.org/2000/svg">
<path fill-rule="evenodd" clip-rule="evenodd" d="M4 8C4 11.3137 6.6863 14 10 14C13.3137 14 16 11.3137 16 8C16 4.68629 13.3137 2 10 2C6.6863 2 4 4.68629 4 8ZM2.00001 8C2.00001 12.4183 5.58173 16 10 16C11.3433 16 12.6093 15.6689 13.7207 15.0839L16.5961 19.5804L18.204 18.4196L15.3466 13.9511C16.9756 12.4866 18 10.3629 18 8C18 3.58172 14.4183 0 10 0C5.58173 0 2.00001 3.58172 2.00001 8Z" fill="#3CACFE"/>
</svg>
