<svg width="16" height="16" viewBox="0 0 16 16" fill="none" xmlns="http://www.w3.org/2000/svg">
<path d="M6.29146 9.17126C7.21923 10.1124 8.34181 10.8391 9.58035 11.3002L11.2559 9.96682C11.3056 9.93261 11.3645 9.91429 11.4248 9.91429C11.4851 9.91429 11.544 9.93261 11.5937 9.96682L14.7048 11.9713C14.8229 12.0423 14.9229 12.1398 14.9968 12.2561C15.0708 12.3724 15.1167 12.5042 15.1309 12.6413C15.1451 12.7784 15.1273 12.9169 15.0788 13.0459C15.0303 13.1749 14.9525 13.2908 14.8515 13.3846L13.3937 14.8246C13.1849 15.0309 12.9283 15.1823 12.6468 15.2652C12.3653 15.3482 12.0676 15.3602 11.7803 15.3002C8.91467 14.7083 6.2733 13.3222 4.15813 11.3002C2.0899 9.25804 0.658693 6.65964 0.038127 3.82015C-0.023177 3.53733 -0.010382 3.24346 0.0752719 2.96703C0.160926 2.6906 0.316534 2.44099 0.527016 2.24238L2.03813 0.784598C2.13164 0.688503 2.24568 0.614809 2.3717 0.569032C2.49773 0.523256 2.63248 0.506583 2.76586 0.520264C2.89925 0.533944 3.02781 0.577623 3.14192 0.648029C3.25603 0.718435 3.35274 0.813744 3.42479 0.92682L5.4959 3.99793C5.53163 4.04616 5.55091 4.10458 5.55091 4.1646C5.55091 4.22461 5.53163 4.28304 5.4959 4.33126L4.13146 5.97126C4.60505 7.18502 5.3429 8.27812 6.29146 9.17126Z" fill="#3CACFE"/>
</svg>
