<svg width="18" height="15" viewBox="0 0 18 15" fill="none" xmlns="http://www.w3.org/2000/svg">
<path d="M9.89999 0.711914C5.89949 0.711914 2.64509 3.87814 2.54789 7.81947V8.00169H0.413086L3.64769 11.463L6.79229 8.00169H4.38749V7.81947C4.48379 4.88347 6.91469 2.53503 9.89999 2.53503C12.9474 2.53503 15.4179 4.98303 15.4179 8.00169C15.4179 11.0204 12.9474 13.4684 9.89999 13.4684C8.72501 13.469 7.58083 13.0973 6.63569 12.4079L5.37029 13.7448C6.6618 14.7474 8.25731 15.2915 9.89999 15.2897C13.9635 15.2897 17.2566 12.0275 17.2566 8.00169C17.2566 3.97591 13.9635 0.711914 9.89999 0.711914ZM8.99999 3.55725V8.00169C9.00101 8.23723 9.09572 8.46293 9.26369 8.63014L12.1437 11.4746C12.3984 11.3119 12.6387 11.1288 12.852 10.9164L10.8 8.89058V3.55725H8.99999Z" fill="#3CACFE"/>
</svg>
